<?xml version="1.0" encoding="utf-8"?>
<!-- Generator: Adobe Illustrator 16.0.0, SVG Export Plug-In . SVG Version: 6.00 Build 0)  -->
<!DOCTYPE svg PUBLIC "-//W3C//DTD SVG 1.1//EN" "http://www.w3.org/Graphics/SVG/1.1/DTD/svg11.dtd">
<svg version="1.1" id="Layer_1" xmlns="http://www.w3.org/2000/svg" xmlns:xlink="http://www.w3.org/1999/xlink" x="0px" y="0px"
	 width="432px" height="216px" viewBox="0 0 432 216" enable-background="new 0 0 432 216" xml:space="preserve">
<g>
	<path fill="#231F20" d="M29.904,41.802c4.035,0,7.733,0.337,11.092,0.998c1.395,0.366,2.73,0.807,3.991,1.291
		c1.291,0.572,2.612,1.351,3.962,2.318c3.77,3.037,5.664,6.809,5.664,11.313c0,4.754-2.333,8.642-7,11.679v0.045
		c7.967,3.271,11.944,8.582,11.944,15.949c0,5.106-2.157,9.522-6.485,13.249c-2.348,1.878-4.945,3.125-7.776,3.728
		c-2.642,0.602-5.562,0.91-8.774,0.91h-6.618c-0.029,0-0.044-0.016-0.044-0.045V92.146c0-0.03,0.015-0.045,0.044-0.045h3.052
		c5.957,0,9.801-0.733,11.518-2.186c1.541-1.204,2.318-2.847,2.318-4.945v-0.044c0-3.434-1.805-5.884-5.415-7.352
		c-2.069-0.807-5.355-1.203-9.889-1.203h-1.585c-0.029,0-0.044-0.015-0.044-0.044V65.969c0-0.029,0.015-0.045,0.044-0.045h2.187
		c4.182,0,6.955-0.836,8.29-2.494c1.1-1.086,1.644-2.494,1.644-4.211c0-2.744-1.482-4.637-4.431-5.679
		c-1.262-0.366-2.67-0.558-4.211-0.558h-3.478c-0.029,0-0.044-0.015-0.044-0.044V41.846C29.86,41.816,29.875,41.802,29.904,41.802
		L29.904,41.802z"/>
	<path fill-rule="evenodd" clip-rule="evenodd" fill="#231F20" d="M138.493,41.803h12.608c0.065,0,0.113,0.081,0.146,0.243
		l-4.316,22.533h-0.097V64.53l0,0l-7.291,37.614c-0.128,0.761-0.226,1.133-0.291,1.133H126.66
		c0.097-0.533,2.279-11.897,6.531-34.092l5.253-27.383H138.493L138.493,41.803z M195.521,41.803c0.098,0,0.243,0.695,0.47,2.085
		c0.128,0.663,1.955,10.54,5.495,29.599c0.194,0.855,2.053,10.765,5.593,29.742l-0.096,0.049h-12.463
		c-0.065,0-0.227-0.842-0.518-2.506c-0.193-0.986-2.376-12.592-6.58-34.818c-0.161-0.841-0.242-1.326-0.242-1.423h-0.049
		c-0.242,0.679-3.652,9.796-10.231,27.383c-2.764,7.484-4.187,11.267-4.251,11.364h-11.413c-0.064,0-0.34-0.696-0.808-2.086
		l-6.318-17.058l4.411-22.413c0.22,0.583,0.523,1.427,0.905,2.535c0.227,0.565,2.732,7.354,7.533,20.367l0,0l10.943-29.42
		c0.339-0.873,2.02-5.351,5.011-13.4H195.521L195.521,41.803z"/>
	<path fill="#231F20" d="M29.904,112.721h30.417l0.044,0.03c0,11.059,0,20.65,0,28.761v32.646c0,0.029-0.029,0.044-0.088,0.044
		H47.167c-0.029,0-0.029-0.015-0.029-0.044v-49.879H29.904c-0.029,0-0.044-0.029-0.044-0.089v-11.439
		C29.86,112.736,29.875,112.721,29.904,112.721L29.904,112.721z"/>
	<path fill="#231F20" d="M94.763,41.801c-16.976,0-30.74,13.765-30.74,30.74s13.764,30.74,30.74,30.74s30.74-13.765,30.74-30.74
		S111.739,41.801,94.763,41.801L94.763,41.801z M107.426,85.204c-3.396,3.304-7.892,5.23-12.663,5.23
		c-4.772,0-9.268-1.927-12.663-5.23c-3.396-3.396-5.23-7.892-5.23-12.663s1.835-9.268,5.23-12.664
		c3.395-3.395,7.891-5.229,12.663-5.229c4.771,0,9.268,1.835,12.663,5.229c3.395,3.396,5.23,7.893,5.23,12.664
		S110.821,81.809,107.426,85.204L107.426,85.204z"/>
	<polygon fill="#231F20" points="298.872,103.281 315.898,103.281 282.887,41.798 282.887,41.798 282.887,41.798 282.887,41.798 
		282.887,41.798 249.78,103.281 266.807,103.281 269.41,98.239 269.466,98.13 271.252,94.673 271.258,94.673 277.237,83.134 
		277.21,83.134 278.958,79.813 278.964,79.801 282.887,72.351 288.468,83.134 288.463,83.134 294.425,94.673 294.425,94.673 
		298.872,103.281 	"/>
	<path fill="#231F20" d="M215.398,41.802c4.035,0,7.733,0.337,11.092,0.998c1.395,0.366,2.73,0.807,3.992,1.291
		c1.291,0.572,2.61,1.351,3.961,2.318c3.772,3.037,5.664,6.809,5.664,11.313c0,4.754-2.333,8.642-6.999,11.679v0.045
		c7.968,3.271,11.943,8.582,11.943,15.949c0,5.106-2.155,9.522-6.484,13.249c-2.348,1.878-4.944,3.125-7.777,3.728
		c-2.641,0.602-5.562,0.91-8.773,0.91h-6.618c-0.029,0-0.045-0.016-0.045-0.045V92.146c0-0.03,0.016-0.045,0.045-0.045h3.053
		c5.957,0,9.801-0.733,11.517-2.186c1.541-1.204,2.318-2.847,2.318-4.945v-0.044c0-3.434-1.804-5.884-5.413-7.352
		c-2.069-0.807-5.356-1.203-9.891-1.203h-1.584c-0.029,0-0.045-0.015-0.045-0.044V65.969c0-0.029,0.016-0.045,0.045-0.045h2.187
		c4.181,0,6.954-0.836,8.29-2.494c1.1-1.086,1.643-2.494,1.643-4.211c0-2.744-1.481-4.637-4.43-5.679
		c-1.264-0.366-2.671-0.558-4.212-0.558h-3.478c-0.029,0-0.045-0.015-0.045-0.044V41.846
		C215.354,41.816,215.369,41.802,215.398,41.802L215.398,41.802z"/>
	<path fill-rule="evenodd" clip-rule="evenodd" fill="#231F20" d="M96.167,174.202c16.977,0,30.741-13.765,30.741-30.741
		c0-16.976-13.765-30.741-30.741-30.741c-16.976,0-30.741,13.766-30.741,30.741c0,11.444,6.257,21.428,15.534,26.721
		c0.969-4.979,1.908-9.788,2.715-13.888l-0.171-0.169c-3.396-3.396-5.23-7.892-5.23-12.664c0-4.771,1.835-9.269,5.23-12.663
		c3.396-3.304,7.892-5.23,12.664-5.23s9.268,1.927,12.663,5.23c3.396,3.395,5.231,7.893,5.231,12.663
		c0,4.772-1.835,9.269-5.231,12.664c-3.395,3.395-7.891,5.229-12.663,5.229c-0.212,0-0.423-0.003-0.634-0.011
		c-0.807,4.235-1.624,8.47-2.445,12.705C94.1,174.149,95.127,174.202,96.167,174.202L96.167,174.202z"/>
	<polygon fill="#231F20" points="213.166,160.961 213.166,160.961 213.166,112.72 198.411,112.72 198.411,174.202 213.072,174.202 
		213.166,174.202 231.068,174.202 233.605,160.961 213.166,160.961 	"/>
	<path fill="#231F20" d="M259.717,112.721h0.045c0.029,0,0.044,0.016,0.044,0.045v10.574c0,0.058-0.416,0.118-1.264,0.178
		c-1.127,0.252-2.078,0.713-2.819,1.351c-0.759,0.744-1.145,1.5-1.145,2.259v0.178c0,1.381,0.949,2.836,2.837,4.351
		c2.896,2.466,6.237,5.094,10.009,7.871c2.657,2.004,4.723,3.638,6.179,4.915c1.975,1.975,3.088,3.192,3.34,3.653
		c2.214,2.793,3.312,5.97,3.312,9.534c0,6-2.865,10.663-8.611,14.003c-3.283,1.708-6.921,2.57-10.916,2.57h-0.877
		c-5.509,0-10.29-1.635-14.359-4.916c-1.588-1.484-2.629-2.555-3.089-3.222c-1.618-2.108-2.644-3.64-3.045-4.559
		c6.667-3.64,10.143-5.525,10.396-5.658c0.639,1.068,1.515,2.257,2.613,3.563c2.525,2.777,5.184,4.174,7.959,4.174h0.565
		c2.584,0,4.707-0.98,6.355-2.956c0.55-0.815,0.833-1.663,0.833-2.568c0-1.529-0.773-3.09-2.318-4.647
		c-1.618-1.604-3.46-3.135-5.522-4.618c-3.564-2.556-7.114-5.361-10.649-8.436c-2.212-2.124-3.443-3.401-3.697-3.832
		c-2.332-3.014-3.489-5.984-3.489-8.881v-0.252c0-4.736,2.436-8.688,7.306-11.879C252.841,113.657,256.181,112.721,259.717,112.721
		L259.717,112.721z"/>
	<path fill-rule="evenodd" clip-rule="evenodd" fill="#231F20" d="M162.23,112.72c-16.977,0-30.741,13.766-30.741,30.741
		c0,16.977,13.765,30.741,30.741,30.741s30.741-13.765,30.741-30.741c0-11.444-6.256-21.428-15.534-26.721
		c-0.97,4.981-1.908,9.787-2.715,13.889l0.172,0.169c3.396,3.395,5.231,7.893,5.231,12.663c0,4.772-1.835,9.269-5.231,12.664
		c-3.395,3.302-7.892,5.229-12.664,5.229c-4.771,0-9.268-1.928-12.664-5.229c-3.395-3.396-5.23-7.892-5.23-12.664
		c0-4.771,1.835-9.269,5.23-12.663c3.396-3.396,7.892-5.23,12.664-5.23c0.212,0,0.423,0.004,0.634,0.011
		c0.807-4.235,1.624-8.471,2.445-12.705C164.297,112.773,163.27,112.72,162.23,112.72L162.23,112.72z"/>
	<polygon fill="#231F20" points="350.372,41.798 367.397,41.798 334.387,103.283 334.387,103.283 334.387,103.283 334.387,103.283 
		334.387,103.283 301.28,41.798 318.307,41.798 320.91,46.841 320.967,46.95 322.752,50.406 322.758,50.406 328.738,61.946 
		328.712,61.946 330.458,65.266 330.465,65.279 334.387,72.729 339.967,61.946 339.964,61.946 345.926,50.406 345.928,50.406 
		350.372,41.798 	"/>
	<polygon fill="#231F20" points="333.867,72.54 350.893,72.54 334.387,103.282 317.979,103.282 323.462,92.687 323.459,92.687 
		329.421,81.148 329.421,81.148 333.867,72.54 	"/>
	<polygon fill-rule="evenodd" clip-rule="evenodd" fill="#F4AA2E" points="282.782,103.282 298.872,103.282 285.771,128.152 
		269.682,128.152 282.782,103.282 	"/>
	<polygon fill="#231F20" points="305.548,134.496 305.548,138.781 303.795,138.781 303.795,134.46 298.872,126.385 300.766,126.385 
		304.734,132.92 308.718,126.385 310.472,126.385 305.548,134.496 	"/>
	<path fill="#231F20" d="M316.414,138.923c-1.251,0-2.379-0.274-3.382-0.823s-1.792-1.308-2.365-2.275
		c-0.571-0.968-0.858-2.05-0.858-3.242c0-1.191,0.287-2.271,0.858-3.24c0.573-0.969,1.362-1.728,2.365-2.275
		s2.131-0.823,3.382-0.823c1.24,0,2.361,0.275,3.364,0.823c1.005,0.548,1.789,1.305,2.356,2.268
		c0.566,0.962,0.851,2.044,0.851,3.248s-0.284,2.288-0.851,3.25c-0.567,0.964-1.352,1.719-2.356,2.268
		C318.775,138.648,317.654,138.923,316.414,138.923L316.414,138.923z M316.414,137.346c0.91,0,1.727-0.207,2.453-0.619
		s1.299-0.982,1.719-1.709c0.418-0.727,0.627-1.538,0.627-2.436c0-0.896-0.209-1.709-0.627-2.435
		c-0.42-0.727-0.992-1.296-1.719-1.709s-1.543-0.619-2.453-0.619c-0.908,0-1.731,0.206-2.469,0.619
		c-0.738,0.413-1.318,0.982-1.736,1.709c-0.419,0.726-0.629,1.538-0.629,2.435c0,0.897,0.21,1.709,0.629,2.436
		c0.418,0.727,0.998,1.297,1.736,1.709C314.683,137.139,315.506,137.346,316.414,137.346L316.414,137.346z"/>
	<path fill="#231F20" d="M329.92,138.923c-1.653,0-2.939-0.473-3.861-1.417c-0.921-0.944-1.382-2.303-1.382-4.073v-7.048h1.772
		v6.977c0,2.657,1.162,3.984,3.488,3.984c1.133,0,2-0.327,2.602-0.982c0.604-0.655,0.904-1.655,0.904-3.002v-6.977h1.718v7.048
		c0,1.783-0.461,3.144-1.382,4.082C332.858,138.454,331.572,138.923,329.92,138.923L329.92,138.923z"/>
	<path fill="#231F20" d="M346.169,138.781l-2.674-3.807c-0.33,0.022-0.59,0.035-0.779,0.035h-3.064v3.771h-1.771v-12.396h4.835
		c1.606,0,2.869,0.383,3.79,1.151c0.921,0.768,1.382,1.822,1.382,3.169c0,0.956-0.238,1.771-0.709,2.444
		c-0.473,0.673-1.146,1.163-2.019,1.47l2.938,4.162H346.169L346.169,138.781z M342.663,133.503c1.121,0,1.977-0.241,2.568-0.726
		c0.589-0.484,0.885-1.175,0.885-2.072s-0.296-1.584-0.885-2.063c-0.592-0.478-1.447-0.718-2.568-0.718h-3.012v5.578H342.663
		L342.663,133.503z"/>
	<polygon fill="#231F20" points="300.801,144.094 302.572,144.094 302.572,156.49 300.801,156.49 300.801,144.094 	"/>
	<polygon fill="#231F20" points="316.043,144.094 316.043,156.49 314.59,156.49 307.151,147.245 307.151,156.49 305.382,156.49 
		305.382,144.094 306.834,144.094 314.272,153.339 314.272,144.094 316.043,144.094 	"/>
	<path fill="#231F20" d="M318.852,144.094h5.224c1.312,0,2.474,0.26,3.489,0.778c1.016,0.521,1.803,1.249,2.364,2.188
		c0.56,0.938,0.841,2.015,0.841,3.232c0,1.215-0.281,2.292-0.841,3.23c-0.562,0.939-1.349,1.668-2.364,2.188
		c-1.016,0.521-2.178,0.779-3.489,0.779h-5.224V144.094L318.852,144.094z M323.969,154.95c1.005,0,1.886-0.194,2.647-0.585
		c0.762-0.389,1.35-0.936,1.763-1.639c0.414-0.702,0.619-1.514,0.619-2.434c0-0.922-0.205-1.734-0.619-2.437
		c-0.413-0.702-1.001-1.248-1.763-1.638c-0.762-0.391-1.643-0.584-2.647-0.584h-3.347v9.315H323.969L323.969,154.95z"/>
	<path fill="#231F20" d="M337.704,156.632c-1.653,0-2.939-0.472-3.861-1.417c-0.92-0.943-1.381-2.301-1.381-4.072v-7.049h1.771
		v6.979c0,2.656,1.162,3.983,3.488,3.983c1.133,0,2.001-0.326,2.604-0.983c0.603-0.654,0.902-1.654,0.902-3v-6.979h1.72v7.049
		c0,1.782-0.461,3.143-1.382,4.082C340.645,156.163,339.357,156.632,337.704,156.632L337.704,156.632z"/>
	<path fill="#231F20" d="M349.279,156.632c-0.934,0-1.834-0.145-2.701-0.434c-0.868-0.289-1.55-0.664-2.046-1.125l0.656-1.381
		c0.472,0.425,1.077,0.771,1.815,1.037c0.737,0.265,1.495,0.397,2.275,0.397c1.026,0,1.793-0.175,2.302-0.523
		c0.507-0.348,0.761-0.811,0.761-1.39c0-0.426-0.138-0.771-0.415-1.036c-0.278-0.267-0.62-0.469-1.027-0.61
		s-0.983-0.302-1.727-0.479c-0.934-0.224-1.687-0.449-2.259-0.674c-0.572-0.224-1.063-0.568-1.47-1.035
		c-0.406-0.467-0.61-1.094-0.61-1.886c0-0.661,0.174-1.257,0.523-1.788c0.348-0.532,0.874-0.957,1.583-1.275
		s1.588-0.479,2.639-0.479c0.733,0,1.452,0.096,2.161,0.284c0.708,0.188,1.316,0.461,1.824,0.814l-0.584,1.417
		c-0.521-0.33-1.075-0.581-1.666-0.753c-0.589-0.171-1.169-0.256-1.735-0.256c-1.002,0-1.755,0.183-2.257,0.549
		s-0.752,0.839-0.752,1.416c0,0.426,0.141,0.771,0.424,1.035c0.283,0.267,0.635,0.474,1.054,0.621s0.989,0.305,1.709,0.469
		c0.933,0.226,1.684,0.448,2.249,0.674c0.566,0.223,1.053,0.566,1.46,1.026c0.408,0.461,0.612,1.08,0.612,1.859
		c0,0.649-0.178,1.242-0.531,1.78c-0.354,0.537-0.893,0.962-1.611,1.275C351.215,156.476,350.329,156.632,349.279,156.632
		L349.279,156.632z"/>
	<polygon fill="#231F20" points="358.037,145.635 353.787,145.635 353.787,144.094 364.042,144.094 364.042,145.635 
		359.791,145.635 359.791,156.49 358.037,156.49 358.037,145.635 	"/>
	<path fill="#231F20" d="M373.349,156.49l-2.674-3.808c-0.33,0.023-0.59,0.036-0.779,0.036h-3.063v3.771h-1.771v-12.396h4.834
		c1.605,0,2.869,0.385,3.791,1.151c0.919,0.767,1.381,1.824,1.381,3.17c0,0.956-0.237,1.771-0.709,2.444
		c-0.473,0.673-1.146,1.162-2.019,1.469l2.939,4.162H373.349L373.349,156.49z M369.842,151.213c1.123,0,1.978-0.242,2.568-0.727
		c0.59-0.483,0.886-1.174,0.886-2.071s-0.296-1.586-0.886-2.063c-0.591-0.479-1.445-0.717-2.568-0.717h-3.01v5.578H369.842
		L369.842,151.213z"/>
	<polygon fill="#231F20" points="377.024,144.094 378.797,144.094 378.797,156.49 377.024,156.49 377.024,144.094 	"/>
	<path fill="#231F20" d="M389.503,153.391h-6.589l-1.363,3.1h-1.824l5.613-12.396h1.754l5.633,12.396h-1.859L389.503,153.391
		L389.503,153.391z M388.883,151.974l-2.675-6.073l-2.674,6.073H388.883L388.883,151.974z"/>
	<polygon fill="#231F20" points="393.657,144.094 395.428,144.094 395.428,154.95 402.14,154.95 402.14,156.49 393.657,156.49 
		393.657,144.094 	"/>
	<path fill="#231F20" d="M305.637,161.804c1.605,0,2.868,0.384,3.79,1.15c0.921,0.769,1.382,1.825,1.382,3.172
		c0,1.345-0.461,2.401-1.382,3.169c-0.922,0.767-2.185,1.15-3.79,1.15h-3.064v3.755h-1.771v-12.396H305.637L305.637,161.804z
		 M305.584,168.904c1.121,0,1.977-0.238,2.567-0.717s0.885-1.166,0.885-2.062c0-0.898-0.294-1.587-0.885-2.065
		c-0.591-0.478-1.446-0.717-2.567-0.717h-3.012v5.561H305.584L305.584,168.904z"/>
	<path fill="#231F20" d="M319.778,171.102h-6.586l-1.365,3.099h-1.823l5.614-12.396h1.752l5.632,12.396h-1.859L319.778,171.102
		L319.778,171.102z M319.16,169.684l-2.675-6.074l-2.674,6.074H319.16L319.16,169.684z"/>
	<path fill="#231F20" d="M332.222,174.2l-2.675-3.808c-0.33,0.023-0.59,0.036-0.779,0.036h-3.063v3.771h-1.771v-12.396h4.834
		c1.607,0,2.869,0.384,3.791,1.15c0.921,0.769,1.382,1.825,1.382,3.172c0,0.956-0.238,1.769-0.71,2.442
		c-0.473,0.672-1.145,1.162-2.019,1.471l2.94,4.161H332.222L332.222,174.2z M328.716,168.922c1.12,0,1.978-0.241,2.567-0.725
		c0.59-0.484,0.885-1.176,0.885-2.071c0-0.898-0.295-1.587-0.885-2.065c-0.59-0.478-1.447-0.717-2.567-0.717h-3.012v5.578H328.716
		L328.716,168.922z"/>
	<polygon fill="#231F20" points="338.182,163.344 333.932,163.344 333.932,161.804 344.186,161.804 344.186,163.344 
		339.936,163.344 339.936,174.2 338.182,174.2 338.182,163.344 	"/>
	<polygon fill="#231F20" points="355.867,161.804 355.867,174.2 354.414,174.2 346.976,164.956 346.976,174.2 345.205,174.2 
		345.205,161.804 346.656,161.804 354.096,171.047 354.096,161.804 355.867,161.804 	"/>
	<polygon fill="#231F20" points="367.671,172.659 367.671,174.2 358.676,174.2 358.676,161.804 367.424,161.804 367.424,163.344 
		360.446,163.344 360.446,167.152 366.662,167.152 366.662,168.657 360.446,168.657 360.446,172.659 367.671,172.659 	"/>
	<path fill="#231F20" d="M377.919,174.2l-2.677-3.808c-0.328,0.023-0.589,0.036-0.778,0.036H371.4v3.771h-1.771v-12.396h4.834
		c1.606,0,2.869,0.384,3.79,1.15c0.921,0.769,1.382,1.825,1.382,3.172c0,0.956-0.236,1.769-0.709,2.442
		c-0.473,0.672-1.144,1.162-2.019,1.471l2.939,4.161H377.919L377.919,174.2z M374.411,168.922c1.122,0,1.978-0.241,2.567-0.725
		c0.592-0.484,0.886-1.176,0.886-2.071c0-0.898-0.294-1.587-0.886-2.065c-0.59-0.478-1.445-0.717-2.567-0.717H371.4v5.578H374.411
		L374.411,168.922z"/>
</g>
</svg>
