<svg xmlns="http://www.w3.org/2000/svg" width="97.583" height="38.275" viewBox="0 0 97.583 38.275"><defs><style>.a{fill:#373435;opacity:0.86;}.b{fill:#f89c32;}</style></defs><path class="a" d="M206.762,498.341l-.328-.05-.3-.045.7-3.618c.083-.006.167-.015.25-.018a5.072,5.072,0,0,0,4.035-2.021,5.179,5.179,0,1,0-9.2-4.086,5.024,5.024,0,0,0,1.315,4.468.4.4,0,0,1,.117.4c-.238,1.166-.461,2.335-.69,3.5-.015.076-.036.15-.059.247-.088-.048-.159-.082-.224-.124a8.71,8.71,0,0,1-4.127-6.156,8.878,8.878,0,1,1,10.734,7.238c-.471.107-.957.145-1.436.216-.085.013-.169.031-.254.047Z" transform="translate(-187.828 -460.066)"/><path class="a" d="M398.9,498.377c-.211-.03-.422-.068-.634-.088a8.871,8.871,0,0,1-1.221-17.442,9.221,9.221,0,0,1,2.721-.236c.085,0,.169.024.274.039l-.7,3.625-.274.012a5.01,5.01,0,0,0-4.718,3.28,5.178,5.178,0,1,0,9.93,2.729,5.032,5.032,0,0,0-1.334-4.374.409.409,0,0,1-.117-.4c.238-1.182.468-2.366.7-3.549.012-.06.031-.118.053-.2.1.06.184.105.263.156a8.681,8.681,0,0,1,4.094,6.2,8.838,8.838,0,0,1-6.685,9.953c-.515.123-1.05.167-1.575.249-.085.013-.17.031-.255.046Z" transform="translate(-360.882 -460.102)"/><path class="a" d="M584.931,498.31c0-.111,0-.222,0-.333q0-8.541,0-17.081v-.325c.195-.05,3.753-.069,4.2-.027l.018.017a.076.076,0,0,1,.013.019.085.085,0,0,1,0,.023c0,.016,0,.032,0,.047s0,.032,0,.048,0,.032,0,.048q0,6.778,0,13.555c0,.016,0,.032,0,.048s0,.016,0,.024a.175.175,0,0,0,0,.023c0,.007.006.014.02.048a7.4,7.4,0,0,0,.81.014c.286,0,.572,0,.858,0h4.214c-.067.354-.128.681-.191,1.006q-.258,1.344-.518,2.687a1.509,1.509,0,0,1-.048.158Z" transform="translate(-536.175 -460.036)"/><path class="a" d="M709.738,498.415c-.2-.031-.406-.069-.61-.091a6.19,6.19,0,0,1-2.992-1.144,5.731,5.731,0,0,1-1.19-1.161c-.247-.321-.472-.658-.7-.991-.062-.09-.107-.192-.17-.309l2.979-1.621c.056.079.105.148.153.218a6.075,6.075,0,0,0,1.121,1.291,2.862,2.862,0,0,0,1.444.688,2.461,2.461,0,0,0,2.2-.649,1.27,1.27,0,0,0,.311-1.423,2.327,2.327,0,0,0-.586-.859,12.622,12.622,0,0,0-1.552-1.3c-.969-.7-1.913-1.423-2.811-2.208a14.188,14.188,0,0,1-1.166-1.124,4.408,4.408,0,0,1-1.145-2.162,3.509,3.509,0,0,1,.7-2.939,5.179,5.179,0,0,1,3.136-1.891c.294-.059.6-.072.9-.1a1.207,1.207,0,0,1,.2.013v3.029a1.961,1.961,0,0,1-.224.043,1.639,1.639,0,0,0-.835.32.935.935,0,0,0-.3,1.3,2.346,2.346,0,0,0,.627.71q1.41,1.118,2.826,2.229c.5.393,1.009.774,1.5,1.172a8.6,8.6,0,0,1,1.47,1.522,4.445,4.445,0,0,1-.669,5.984,5.847,5.847,0,0,1-2.843,1.307c-.281.049-.567.072-.851.109a1.337,1.337,0,0,0-.159.041Z" transform="translate(-643.472 -460.141)"/><path class="a" d="M99.56,498.54c0-.1.007-.206.007-.309q0-6.887,0-13.774v-.363c-.286-.025-.561-.01-.835-.012s-.541,0-.811,0h-3.3a29.023,29.023,0,0,1-.022-3.3h8.759c.007.057.015.117.02.178,0,.032,0,.064,0,.1q0,8.722,0,17.444a.349.349,0,0,0,.006.047Z" transform="translate(-94.558 -460.265)"/><path class="a" d="M194.035,283.342a8.883,8.883,0,1,1,8.863,8.882A8.9,8.9,0,0,1,194.035,283.342Zm8.884-5.159a5.175,5.175,0,1,0,5.182,5.178A5.158,5.158,0,0,0,202.918,278.184Z" transform="translate(-184.144 -274.484)"/><path class="a" d="M465.922,281.241l-4.157,11.117h-3.311c-.037-.089-.073-.168-.1-.249-.613-1.66-1.223-3.322-1.843-4.98a1.007,1.007,0,0,1-.04-.578q.588-2.954,1.164-5.909c.009-.045.024-.09.052-.195l2.4,6.5.053,0,4.588-12.3h3.658l3.316,17.708h-3.626c-.355-1.846-.7-3.7-1.051-5.551s-.7-3.7-1.052-5.555Z" transform="translate(-420.463 -274.63)"/><path class="a" d="M903.444,274.645c-.043.089-.075.159-.111.227q-4.634,8.624-9.265,17.251a.407.407,0,0,1-.421.254c-1.376-.011-2.751-.005-4.127-.005h-.3c.049-.106.081-.182.119-.255.689-1.333,1.376-2.667,2.073-4a.427.427,0,0,0-.008-.457q-3.431-6.35-6.853-12.705c-.052-.1-.1-.194-.159-.312h4.889c1.542,2.951,3.052,5.921,4.61,8.846a.426.426,0,0,0,.058,0,.045.045,0,0,0,.02-.011.442.442,0,0,0,.03-.036.141.141,0,0,0,.013-.02l.044-.085,4.467-8.631a.243.243,0,0,1,.027-.039.236.236,0,0,1,.029-.025Z" transform="translate(-805.861 -274.629)"/><path class="a" d="M744.072,274.605l9.519,17.71c-.1.008-.171.019-.239.019-1.479,0-2.958,0-4.437,0a.316.316,0,0,1-.324-.206q-2.178-4.223-4.364-8.442c-.042-.082-.089-.162-.157-.288-1.589,2.984-3.1,5.952-4.647,8.917h-4.9Z" transform="translate(-670.894 -274.593)"/><path class="a" d="M94.6,284.506v-3c.267,0,.519,0,.771,0a4.988,4.988,0,0,0,1.274-.15,2.008,2.008,0,0,0,1.061-.643,1.713,1.713,0,0,0-.431-2.593,2.7,2.7,0,0,0-1.228-.342c-.389-.021-.779-.016-1.168-.021-.086,0-.171,0-.248,0a31.2,31.2,0,0,1-.018-3.2.718.718,0,0,1,.106-.015,14.14,14.14,0,0,1,3.055.287,5.26,5.26,0,0,1,2.82,1.5,3.85,3.85,0,0,1-.531,5.926l-.3.228c-.005,0-.007.014-.018.04.056.029.114.062.175.089a6.985,6.985,0,0,1,1.553.921,4.408,4.408,0,0,1,1.691,3.356,5.113,5.113,0,0,1-3.741,5.041,8.9,8.9,0,0,1-2.138.331c-.826.026-1.653.016-2.48.02-.062,0-.123-.011-.2-.018v-3.17c.08-.005.155-.014.231-.015.6-.015,1.208-.017,1.811-.046a5.81,5.81,0,0,0,1.568-.273,1.8,1.8,0,0,0,1.265-2.062,2.056,2.056,0,0,0-.974-1.535,3.575,3.575,0,0,0-1.445-.52,14.59,14.59,0,0,0-2.163-.134Z" transform="translate(-94.574 -274.539)"/><path class="a" d="M634.27,289.069h.749a11.753,11.753,0,0,0,2.09-.142,4.33,4.33,0,0,0,.894-.241,1.7,1.7,0,0,0,1.123-1.642,2.093,2.093,0,0,0-1.128-1.98,3.83,3.83,0,0,0-1.658-.476c-.617-.049-1.238-.062-1.857-.09l-.206-.011c-.047-.184-.061-2.642-.015-2.988h.271a7.254,7.254,0,0,0,1.543-.1,2.236,2.236,0,0,0,1.288-.709,1.735,1.735,0,0,0-.408-2.554,2.818,2.818,0,0,0-1.269-.365c-.389-.022-.779-.015-1.168-.022-.086,0-.172-.008-.265-.012v-3.2c.133,0,.25,0,.368,0a14.051,14.051,0,0,1,2.794.286,5.307,5.307,0,0,1,2.82,1.5,3.867,3.867,0,0,1,.921,4.054,3.742,3.742,0,0,1-1.322,1.77c-.148.118-.3.228-.476.358.072.038.122.068.176.092a7.266,7.266,0,0,1,1.329.742,4.4,4.4,0,0,1,1.938,3.711,4.655,4.655,0,0,1-1,2.988,5.334,5.334,0,0,1-3.343,2.03,11.146,11.146,0,0,1-2.013.2q-.99,0-1.98,0c-.062,0-.125-.008-.184-.013C634.228,292.077,634.217,289.364,634.27,289.069Z" transform="translate(-580.576 -274.532)"/><path class="a" d="M379.7,274.689h3.7l-3.465,17.7h-3.637Z" transform="translate(-348.295 -274.669)"/><path class="b" d="M792,460.159,795.778,453h4.673l-3.878,7.159Z" transform="translate(-722.656 -435.251)"/></svg>