<svg xmlns="http://www.w3.org/2000/svg" width="117.064" height="39.508" viewBox="0 0 117.064 39.508"><defs><style>.a{fill:#f7931e;}.b{fill:#fff;}.c{fill:#bfa7fb;}.d{fill:#32cafe;}</style></defs><path class="a" d="M364.733,163.676a3.072,3.072,0,0,1,.879-2.231,2.958,2.958,0,0,1,2.209-.9,3.131,3.131,0,1,1,0,6.262,2.958,2.958,0,0,1-2.209-.9A3.072,3.072,0,0,1,364.733,163.676Z" transform="translate(-364.733 -160.545)"/><rect class="b" width="4.847" height="22.178" transform="translate(0.558 8.751)"/><path class="b" d="M390.211,174.93v14.756h-4.675V174.972a3.07,3.07,0,0,0-.494-1.608,3.9,3.9,0,0,0-1.116-1.094,4.721,4.721,0,0,0-1.5-.621,7.5,7.5,0,0,0-1.694-.194,7.69,7.69,0,0,0-1.737.194,4.507,4.507,0,0,0-1.437.579v17.458h-4.719V168.838a14.7,14.7,0,0,1,3.6-1.309,19.86,19.86,0,0,1,3.99-.494,15.622,15.622,0,0,1,3.668.43,9.158,9.158,0,0,1,3.131,1.372,7.01,7.01,0,0,1,2.166,2.445A7.552,7.552,0,0,1,390.211,174.93Z" transform="translate(-362.5 -158.757)"/><path class="b" d="M399.483,165.524a5.9,5.9,0,0,0-3.345.793,2.529,2.529,0,0,0-1.158,2.209v4.033h4.246v4.718h-4.246V191.39H390.26V168.526a7.818,7.818,0,0,1,.708-3.411,6.817,6.817,0,0,1,1.973-2.467,8.477,8.477,0,0,1,2.939-1.458,10.642,10.642,0,0,1,2.746-.343c.285,0,.571.014.857.042Z" transform="translate(-357.702 -160.462)"/><path class="c" d="M399.576,163.979a3.068,3.068,0,0,1,.88-2.231,2.957,2.957,0,0,1,2.209-.9,3.131,3.131,0,1,1,0,6.262,2.957,2.957,0,0,1-2.209-.9A3.068,3.068,0,0,1,399.576,163.979Z" transform="translate(-355.136 -160.462)"/><rect class="b" width="4.847" height="22.178" transform="translate(44.999 9.137)"/><path class="b" d="M425.055,174.93v14.756h-4.676V174.972a3.058,3.058,0,0,0-.494-1.608,3.893,3.893,0,0,0-1.115-1.094,4.734,4.734,0,0,0-1.5-.621,7.521,7.521,0,0,0-1.7-.194,7.691,7.691,0,0,0-1.737.194,4.519,4.519,0,0,0-1.437.579v17.458h-4.718V168.838a14.661,14.661,0,0,1,3.6-1.309,19.862,19.862,0,0,1,3.99-.494,15.62,15.62,0,0,1,3.667.43,9.157,9.157,0,0,1,3.131,1.372,7,7,0,0,1,2.167,2.445A7.567,7.567,0,0,1,425.055,174.93Z" transform="translate(-352.903 -158.757)"/><path class="d" d="M424.565,163.676a3.068,3.068,0,0,1,.88-2.231,2.954,2.954,0,0,1,2.209-.9,3.131,3.131,0,1,1,0,6.262,2.954,2.954,0,0,1-2.209-.9A3.068,3.068,0,0,1,424.565,163.676Z" transform="translate(-348.252 -160.545)"/><rect class="b" width="4.847" height="22.178" transform="translate(76.871 8.751)"/><path class="b" d="M440.42,191.153a10.171,10.171,0,0,1-3.067-.452,6.69,6.69,0,0,1-2.51-1.414,6.514,6.514,0,0,1-1.672-2.467,9.676,9.676,0,0,1-.6-3.6V163.269h4.247l.429,5.234h4.247v4.289h-4.247v10.381a4.4,4.4,0,0,0,.407,2.08,2.657,2.657,0,0,0,1.094,1.116,4.179,4.179,0,0,0,1.566.45q.878.086,1.865.085v4.118A12.458,12.458,0,0,1,440.42,191.153Z" transform="translate(-346.047 -159.795)"/><path class="b" d="M460.351,189.979a8.253,8.253,0,0,1-.751,3.646,7.372,7.372,0,0,1-1.995,2.552,8.4,8.4,0,0,1-2.852,1.5,11.273,11.273,0,0,1-3.325.494,12.577,12.577,0,0,1-4.954-1.009,7.847,7.847,0,0,1-3.668-3.024l2.832-2.7a6.1,6.1,0,0,0,2.616,1.93,8.365,8.365,0,0,0,3.047.6h.214a4.806,4.806,0,0,0,1.737-.321,3.963,3.963,0,0,0,1.436-.944,4.521,4.521,0,0,0,.944-1.481,5.451,5.451,0,0,0,.216-1.543v-.472a12.685,12.685,0,0,1-4.076.815,11.259,11.259,0,0,1-3.367-.515,9.36,9.36,0,0,1-2.939-1.5,7.744,7.744,0,0,1-2.08-2.423,6.763,6.763,0,0,1-.793-3.325V167.373h4.719V182.3a2.9,2.9,0,0,0,.472,1.5,3.616,3.616,0,0,0,1.115,1.073,5.362,5.362,0,0,0,1.523.643,6.741,6.741,0,0,0,1.7.214,7.278,7.278,0,0,0,1.93-.258,5.307,5.307,0,0,0,1.63-.728V167.373h4.676Z" transform="translate(-343.287 -158.664)"/></svg>